<svg width="31" height="31" viewBox="0 0 31 31" fill="none" xmlns="http://www.w3.org/2000/svg">
<path d="M10.7133 6.08247C10.7133 6.31362 10.8051 6.5353 10.9686 6.69874C11.132 6.86219 11.3537 6.95401 11.5848 6.95401C11.816 6.95401 12.0377 6.86219 12.2011 6.69874C12.3646 6.5353 12.4564 6.31362 12.4564 6.08247C12.4564 5.85133 12.3646 5.62965 12.2011 5.4662C12.0377 5.30276 11.816 5.21093 11.5848 5.21093C11.3537 5.21093 11.132 5.30276 10.9686 5.4662C10.8051 5.62965 10.7133 5.85133 10.7133 6.08247ZM12.55 7.25968C12.55 7.49083 12.6418 7.71251 12.8053 7.87595C12.9687 8.0394 13.1904 8.13122 13.4215 8.13122C13.6527 8.13122 13.8743 8.0394 14.0378 7.87595C14.2012 7.71251 14.2931 7.49083 14.2931 7.25968C14.2931 7.02854 14.2012 6.80686 14.0378 6.64341C13.8743 6.47997 13.6527 6.38814 13.4215 6.38814C13.1904 6.38814 12.9687 6.47997 12.8053 6.64341C12.6418 6.80686 12.55 7.02854 12.55 7.25968ZM8.95639 16.5333C9.6554 16.74 10.4127 16.7001 11.2281 16.4144C11.3243 14.959 11.0264 13.8141 10.4876 13.7386C9.89632 13.6556 9.22862 14.8895 8.95639 16.5333ZM24.2433 22.6692C24.8817 23.5056 25.3754 24.6347 25.6522 25.9352C26.5997 25.1604 27.7476 24.7069 28.9848 24.7069C29.4379 24.7069 29.8796 24.7679 30.3034 24.8832C27.9068 25.5348 26.0678 27.9241 25.7758 30.8761H8.34307C8.13144 30.0488 8.02536 29.1982 8.02735 28.3443C8.02735 26.5192 8.49632 24.8522 9.26915 23.5818C8.76821 21.8542 8.48808 19.9223 8.48808 17.8839C8.48808 17.4334 8.50159 16.9878 8.52862 16.5485C5.05796 15.7566 2.42176 13.8438 1.68847 11.493C1.43523 11.4616 1.19075 11.3801 0.969251 11.2534C0.747753 11.1267 0.553656 10.9572 0.398243 10.7548C0.242831 10.5524 0.129205 10.3211 0.0639715 10.0744C-0.0012622 9.82773 -0.016802 9.57052 0.0182556 9.31775C0.0533133 9.06499 0.138269 8.82171 0.268183 8.60208C0.398097 8.38244 0.570378 8.19081 0.775009 8.03835C0.97964 7.88589 1.21254 7.77562 1.46016 7.71397C1.70779 7.65232 1.9652 7.6405 2.21743 7.67922C3.76837 5.16166 7.60913 3.38003 12.1018 3.38003C13.4263 3.38003 14.6938 3.53493 15.8628 3.81769C15.9959 1.63003 16.5117 0 17.1267 0C17.8234 0 18.3919 2.08978 18.4232 4.71214L18.5468 4.77146C19.5569 2.64576 20.7516 1.20193 21.3461 1.45438C21.9795 1.7233 21.701 3.82099 20.7338 6.21133C21.469 6.86519 22.0263 7.60639 22.3608 8.40558C23.8577 10.8203 24.7851 14.1753 24.7851 17.8842C24.7851 19.5706 24.5933 21.1842 24.2433 22.6692Z" fill="#4F46E5"/>
</svg>
